<svg width="90" height="15" viewBox="0 0 90 15" fill="none" xmlns="http://www.w3.org/2000/svg">
<path d="M8.23935 4.67401C8.18821 4.15838 7.96875 3.75781 7.58097 3.4723C7.19318 3.18679 6.6669 3.04403 6.00213 3.04403C5.55043 3.04403 5.16903 3.10795 4.85795 3.2358C4.54688 3.35938 4.30824 3.53196 4.14205 3.75355C3.98011 3.97514 3.89915 4.22656 3.89915 4.50781C3.89063 4.74219 3.93963 4.94673 4.04616 5.12145C4.15696 5.29616 4.30824 5.44744 4.5 5.57528C4.69176 5.69886 4.91335 5.80753 5.16477 5.90128C5.41619 5.99077 5.68466 6.06747 5.97017 6.13139L7.14631 6.41264C7.71733 6.54048 8.24148 6.71094 8.71875 6.92401C9.19602 7.13707 9.60938 7.39915 9.95881 7.71023C10.3082 8.02131 10.5788 8.38778 10.7706 8.80966C10.9666 9.23153 11.0668 9.7152 11.071 10.2607C11.0668 11.0618 10.8622 11.7564 10.4574 12.3445C10.0568 12.9283 9.47727 13.3821 8.71875 13.706C7.96449 14.0256 7.05469 14.1854 5.98935 14.1854C4.93253 14.1854 4.01207 14.0234 3.22798 13.6996C2.44815 13.3757 1.83878 12.8963 1.39986 12.2614C0.965199 11.6222 0.737216 10.8317 0.715909 9.88991H3.39418C3.42401 10.3288 3.54972 10.6953 3.77131 10.9893C3.99716 11.2791 4.29759 11.4986 4.67259 11.6477C5.05185 11.7926 5.48011 11.8651 5.95739 11.8651C6.42614 11.8651 6.8331 11.7969 7.17827 11.6605C7.5277 11.5241 7.7983 11.3345 7.99006 11.0916C8.18182 10.8487 8.2777 10.5696 8.2777 10.2543C8.2777 9.96023 8.19034 9.71307 8.01562 9.51278C7.84517 9.3125 7.59375 9.14205 7.26136 9.00142C6.93324 8.8608 6.53054 8.73295 6.05327 8.6179L4.62784 8.25994C3.52415 7.99148 2.6527 7.57173 2.01349 7.00071C1.37429 6.42969 1.05682 5.66051 1.06108 4.69318C1.05682 3.90057 1.26776 3.2081 1.69389 2.61577C2.12429 2.02344 2.71449 1.56108 3.46449 1.22869C4.21449 0.896306 5.06676 0.730113 6.02131 0.730113C6.9929 0.730113 7.84091 0.896306 8.56534 1.22869C9.29403 1.56108 9.8608 2.02344 10.2656 2.61577C10.6705 3.2081 10.8793 3.89418 10.892 4.67401H8.23935ZM15.6813 14.1854C15.0549 14.1854 14.4966 14.0767 14.0066 13.8594C13.5165 13.6378 13.1287 13.3118 12.8432 12.8814C12.562 12.4467 12.4213 11.9055 12.4213 11.2578C12.4213 10.7124 12.5215 10.2543 12.7218 9.88352C12.9221 9.51278 13.1948 9.21449 13.54 8.98864C13.8851 8.76278 14.2772 8.59233 14.7161 8.47727C15.1593 8.36222 15.6238 8.28125 16.1096 8.23438C16.6806 8.17472 17.1408 8.11932 17.4902 8.06818C17.8397 8.01278 18.0932 7.93182 18.2509 7.82528C18.4086 7.71875 18.4874 7.56108 18.4874 7.35227V7.31392C18.4874 6.90909 18.3596 6.59588 18.1039 6.37429C17.8525 6.1527 17.4945 6.0419 17.03 6.0419C16.54 6.0419 16.15 6.15057 15.8603 6.3679C15.5705 6.58097 15.3787 6.84943 15.285 7.1733L12.7665 6.96875C12.8944 6.37216 13.1458 5.85653 13.5208 5.42188C13.8958 4.98295 14.3794 4.64631 14.9718 4.41193C15.5684 4.1733 16.2587 4.05398 17.0428 4.05398C17.5882 4.05398 18.1103 4.1179 18.6088 4.24574C19.1117 4.37358 19.557 4.57173 19.9448 4.8402C20.3368 5.10866 20.6458 5.45384 20.8716 5.87571C21.0975 6.29332 21.2104 6.79403 21.2104 7.37784V14H18.628V12.6385H18.5513C18.3936 12.9453 18.1827 13.2159 17.9185 13.4503C17.6543 13.6804 17.3368 13.8615 16.9661 13.9936C16.5953 14.1214 16.1671 14.1854 15.6813 14.1854ZM16.4611 12.3061C16.8617 12.3061 17.2154 12.2273 17.5222 12.0696C17.829 11.9077 18.0698 11.6903 18.2445 11.4176C18.4192 11.1449 18.5066 10.8359 18.5066 10.4908V9.44886C18.4213 9.50426 18.3042 9.5554 18.155 9.60227C18.0101 9.64489 17.8461 9.68537 17.6628 9.72372C17.4796 9.75781 17.2963 9.78977 17.1131 9.8196C16.9299 9.84517 16.7637 9.86861 16.6145 9.88991C16.2949 9.93679 16.0158 10.0114 15.7772 10.1136C15.5385 10.2159 15.3532 10.3544 15.2211 10.5291C15.089 10.6996 15.0229 10.9126 15.0229 11.1683C15.0229 11.5391 15.1571 11.8224 15.4256 12.0185C15.6983 12.2102 16.0435 12.3061 16.4611 12.3061ZM26.046 8.32386V14H23.323V4.18182H25.9181V5.91406H26.0332C26.2505 5.34304 26.6149 4.89133 27.1262 4.55895C27.6376 4.2223 28.2576 4.05398 28.9863 4.05398C29.6681 4.05398 30.2626 4.20312 30.7697 4.50142C31.2768 4.79972 31.671 5.22585 31.9522 5.77983C32.2335 6.32955 32.3741 6.9858 32.3741 7.74858V14H29.6511V8.23438C29.6554 7.63352 29.502 7.16477 29.1909 6.82812C28.8798 6.48722 28.4515 6.31676 27.9061 6.31676C27.5396 6.31676 27.2157 6.3956 26.9345 6.55327C26.6575 6.71094 26.4402 6.94105 26.2825 7.24361C26.1291 7.5419 26.0502 7.90199 26.046 8.32386ZM42.6893 6.98153L40.1964 7.13494C40.1538 6.92187 40.0621 6.73011 39.9215 6.55966C39.7809 6.38494 39.5955 6.24645 39.3654 6.14418C39.1396 6.03764 38.869 5.98438 38.5536 5.98438C38.1317 5.98438 37.7759 6.07386 37.4862 6.25284C37.1964 6.42756 37.0515 6.66193 37.0515 6.95597C37.0515 7.19034 37.1452 7.38849 37.3327 7.55043C37.5202 7.71236 37.842 7.84233 38.2979 7.94034L40.0749 8.2983C41.0295 8.49432 41.7411 8.80966 42.2099 9.24432C42.6786 9.67898 42.913 10.25 42.913 10.9574C42.913 11.6009 42.7234 12.1655 42.3441 12.6513C41.9691 13.1371 41.4535 13.5163 40.7972 13.7891C40.1452 14.0575 39.3931 14.1918 38.5408 14.1918C37.2411 14.1918 36.2056 13.9212 35.4343 13.38C34.6673 12.8345 34.2177 12.093 34.0856 11.1555L36.7638 11.0149C36.8448 11.4112 37.0408 11.7138 37.3519 11.9226C37.663 12.1271 38.0614 12.2294 38.5472 12.2294C39.0245 12.2294 39.408 12.1378 39.6978 11.9545C39.9918 11.767 40.141 11.5263 40.1452 11.2322C40.141 10.9851 40.0366 10.7827 39.832 10.625C39.6275 10.4631 39.3121 10.3395 38.886 10.2543L37.1857 9.91548C36.2269 9.72372 35.5131 9.39134 35.0444 8.91832C34.5799 8.44531 34.3477 7.84233 34.3477 7.10938C34.3477 6.47869 34.5181 5.93537 34.859 5.4794C35.2042 5.02344 35.6879 4.67188 36.31 4.42472C36.9364 4.17756 37.6694 4.05398 38.5089 4.05398C39.7489 4.05398 40.7248 4.31605 41.4364 4.8402C42.1523 5.36435 42.57 6.07812 42.6893 6.98153ZM55.9464 4.67401C55.8952 4.15838 55.6758 3.75781 55.288 3.4723C54.9002 3.18679 54.3739 3.04403 53.7092 3.04403C53.2575 3.04403 52.8761 3.10795 52.565 3.2358C52.2539 3.35938 52.0153 3.53196 51.8491 3.75355C51.6871 3.97514 51.6062 4.22656 51.6062 4.50781C51.5977 4.74219 51.6467 4.94673 51.7532 5.12145C51.864 5.29616 52.0153 5.44744 52.207 5.57528C52.3988 5.69886 52.6204 5.80753 52.8718 5.90128C53.1232 5.99077 53.3917 6.06747 53.6772 6.13139L54.8533 6.41264C55.4244 6.54048 55.9485 6.71094 56.4258 6.92401C56.9031 7.13707 57.3164 7.39915 57.6658 7.71023C58.0153 8.02131 58.2859 8.38778 58.4776 8.80966C58.6737 9.23153 58.7738 9.7152 58.7781 10.2607C58.7738 11.0618 58.5692 11.7564 58.1644 12.3445C57.7638 12.9283 57.1843 13.3821 56.4258 13.706C55.6715 14.0256 54.7617 14.1854 53.6964 14.1854C52.6396 14.1854 51.7191 14.0234 50.935 13.6996C50.1552 13.3757 49.5458 12.8963 49.1069 12.2614C48.6722 11.6222 48.4442 10.8317 48.4229 9.88991H51.1012C51.131 10.3288 51.2567 10.6953 51.4783 10.9893C51.7042 11.2791 52.0046 11.4986 52.3796 11.6477C52.7589 11.7926 53.1871 11.8651 53.6644 11.8651C54.1332 11.8651 54.5401 11.7969 54.8853 11.6605C55.2347 11.5241 55.5053 11.3345 55.6971 11.0916C55.8888 10.8487 55.9847 10.5696 55.9847 10.2543C55.9847 9.96023 55.8974 9.71307 55.7227 9.51278C55.5522 9.3125 55.3008 9.14205 54.9684 9.00142C54.6403 8.8608 54.2376 8.73295 53.7603 8.6179L52.3349 8.25994C51.2312 7.99148 50.3597 7.57173 49.7205 7.00071C49.0813 6.42969 48.7638 5.66051 48.7681 4.69318C48.7638 3.90057 48.9748 3.2081 49.4009 2.61577C49.8313 2.02344 50.4215 1.56108 51.1715 1.22869C51.9215 0.896306 52.7738 0.730113 53.7283 0.730113C54.6999 0.730113 55.5479 0.896306 56.2724 1.22869C57.0011 1.56108 57.5678 2.02344 57.9727 2.61577C58.3775 3.2081 58.5863 3.89418 58.5991 4.67401H55.9464ZM65.063 14.1918C64.0531 14.1918 63.1838 13.9872 62.4551 13.5781C61.7306 13.1648 61.1724 12.581 60.7804 11.8267C60.3883 11.0682 60.1923 10.1712 60.1923 9.13565C60.1923 8.12571 60.3883 7.23935 60.7804 6.47656C61.1724 5.71378 61.7243 5.11932 62.4359 4.69318C63.1518 4.26705 63.9913 4.05398 64.9544 4.05398C65.6021 4.05398 66.2051 4.15838 66.7633 4.36719C67.3258 4.57173 67.8159 4.88068 68.2335 5.29403C68.6554 5.70739 68.9835 6.22727 69.2179 6.85369C69.4522 7.47585 69.5694 8.20455 69.5694 9.03977V9.78764H61.2789V8.10014H67.0062C67.0062 7.7081 66.921 7.3608 66.7505 7.05824C66.5801 6.75568 66.3436 6.51918 66.041 6.34872C65.7427 6.17401 65.3954 6.08665 64.9991 6.08665C64.5858 6.08665 64.2193 6.18253 63.8997 6.37429C63.5843 6.56179 63.3372 6.81534 63.1582 7.13494C62.9792 7.45028 62.8876 7.80185 62.8833 8.18963V9.79403C62.8833 10.2798 62.9728 10.6996 63.1518 11.0533C63.335 11.407 63.5929 11.6797 63.9252 11.8714C64.2576 12.0632 64.6518 12.1591 65.1078 12.1591C65.4103 12.1591 65.6873 12.1165 65.9387 12.0312C66.1902 11.946 66.4054 11.8182 66.5843 11.6477C66.7633 11.4773 66.8997 11.2685 66.9934 11.0213L69.5119 11.1875C69.3841 11.7926 69.122 12.321 68.7257 12.7727C68.3336 13.2202 67.8265 13.5696 67.2044 13.821C66.5865 14.0682 65.8727 14.1918 65.063 14.1918ZM71.3464 14V4.18182H73.9863V5.89489H74.0886C74.2676 5.28551 74.568 4.82528 74.9899 4.5142C75.4118 4.19886 75.8975 4.04119 76.4473 4.04119C76.5836 4.04119 76.7306 4.04972 76.8883 4.06676C77.046 4.08381 77.1845 4.10724 77.3038 4.13707V6.55327C77.176 6.51491 76.9991 6.48082 76.7733 6.45099C76.5474 6.42116 76.3407 6.40625 76.1532 6.40625C75.7527 6.40625 75.3947 6.49361 75.0794 6.66832C74.7683 6.83878 74.5211 7.07741 74.3379 7.38423C74.1589 7.69105 74.0694 8.04474 74.0694 8.44531V14H71.3464ZM78.7116 14V4.18182H81.4347V14H78.7116ZM80.0795 2.91619C79.6747 2.91619 79.3274 2.78196 79.0376 2.51349C78.7521 2.24077 78.6094 1.91477 78.6094 1.53551C78.6094 1.16051 78.7521 0.838778 79.0376 0.570312C79.3274 0.297585 79.6747 0.161221 80.0795 0.161221C80.4844 0.161221 80.8295 0.297585 81.1151 0.570312C81.4048 0.838778 81.5497 1.16051 81.5497 1.53551C81.5497 1.91477 81.4048 2.24077 81.1151 2.51349C80.8295 2.78196 80.4844 2.91619 80.0795 2.91619ZM88.8958 4.18182V6.22727H82.8361V4.18182H88.8958ZM84.2232 14V3.4723C84.2232 2.76065 84.3617 2.17045 84.6387 1.7017C84.9199 1.23295 85.3034 0.881391 85.7892 0.647016C86.275 0.412641 86.8269 0.295454 87.4448 0.295454C87.8624 0.295454 88.2438 0.327414 88.589 0.391335C88.9384 0.455255 89.1983 0.512784 89.3688 0.56392L88.883 2.60938C88.7765 2.57528 88.6444 2.54332 88.4867 2.51349C88.3333 2.48366 88.1756 2.46875 88.0137 2.46875C87.6131 2.46875 87.334 2.5625 87.1763 2.75C87.0186 2.93324 86.9398 3.19105 86.9398 3.52344V14H84.2232Z" fill="#2D2D2D"/>
</svg>
